<?xml version="1.0" encoding="UTF-8" standalone="no"?>
<!-- Created with Inkscape (http://www.inkscape.org/) -->

<svg
   xmlns:dc="http://purl.org/dc/elements/1.1/"
   xmlns:cc="http://creativecommons.org/ns#"
   xmlns:rdf="http://www.w3.org/1999/02/22-rdf-syntax-ns#"
   xmlns:svg="http://www.w3.org/2000/svg"
   xmlns="http://www.w3.org/2000/svg"
   xmlns:sodipodi="http://sodipodi.sourceforge.net/DTD/sodipodi-0.dtd"
   xmlns:inkscape="http://www.inkscape.org/namespaces/inkscape"
   width="74.201843mm"
   height="61.065517mm"
   viewBox="0 0 74.201843 61.065517"
   version="1.1"
   id="svg1052"
   inkscape:version="0.92.2 (5c3e80d, 2017-08-06)"
   sodipodi:docname="mbi-logo.svg">
  <defs
     id="defs1046">
    <radialGradient
       fx="0"
       fy="0"
       cx="0"
       cy="0"
       r="1"
       gradientUnits="userSpaceOnUse"
       gradientTransform="matrix(51.221847,0,0,-51.221847,120.05908,137.63867)"
       spreadMethod="pad"
       id="radialGradient86">
      <stop
         style="stop-opacity:1;stop-color:#ffffff"
         offset="0"
         id="stop78" />
      <stop
         style="stop-opacity:1;stop-color:#ffffff"
         offset="0.07930254"
         id="stop80" />
      <stop
         style="stop-opacity:1;stop-color:#686aa6"
         offset="0.741758"
         id="stop82" />
      <stop
         style="stop-opacity:1;stop-color:#202458"
         offset="1"
         id="stop84" />
    </radialGradient>
    <clipPath
       clipPathUnits="userSpaceOnUse"
       id="clipPath108">
      <path
         d="m 111.183,144.946 h 16.438 v -16.438 h -16.438 z"
         id="path106"
         inkscape:connector-curvature="0" />
    </clipPath>
    <clipPath
       clipPathUnits="userSpaceOnUse"
       id="clipPath122">
      <path
         d="m 112.826,143.303 h 13.152 v -13.152 h -13.152 z"
         id="path120"
         inkscape:connector-curvature="0" />
    </clipPath>
    <clipPath
       clipPathUnits="userSpaceOnUse"
       id="clipPath136">
      <path
         d="m 114.142,141.987 h 10.52 v -10.52 h -10.52 z"
         id="path134"
         inkscape:connector-curvature="0" />
    </clipPath>
    <clipPath
       clipPathUnits="userSpaceOnUse"
       id="clipPath150">
      <path
         d="m 115.193,140.936 h 8.417 v -8.417 h -8.417 z"
         id="path148"
         inkscape:connector-curvature="0" />
    </clipPath>
    <clipPath
       clipPathUnits="userSpaceOnUse"
       id="clipPath164">
      <path
         d="m 116.035,140.094 h 6.734 v -6.734 h -6.734 z"
         id="path162"
         inkscape:connector-curvature="0" />
    </clipPath>
    <clipPath
       clipPathUnits="userSpaceOnUse"
       id="clipPath178">
      <path
         d="m 116.709,139.42 h 5.387 v -5.387 h -5.387 z"
         id="path176"
         inkscape:connector-curvature="0" />
    </clipPath>
    <clipPath
       clipPathUnits="userSpaceOnUse"
       id="clipPath192">
      <path
         d="m 117.248,138.881 h 4.309 v -4.309 h -4.309 z"
         id="path190"
         inkscape:connector-curvature="0" />
    </clipPath>
    <clipPath
       clipPathUnits="userSpaceOnUse"
       id="clipPath206">
      <path
         d="m 117.679,138.45 h 3.447 v -3.447 h -3.447 z"
         id="path204"
         inkscape:connector-curvature="0" />
    </clipPath>
  </defs>
  <sodipodi:namedview
     id="base"
     pagecolor="#ffffff"
     bordercolor="#666666"
     borderopacity="1.0"
     inkscape:pageopacity="0.0"
     inkscape:pageshadow="2"
     inkscape:zoom="3.959798"
     inkscape:cx="186.14739"
     inkscape:cy="24.460077"
     inkscape:document-units="mm"
     inkscape:current-layer="layer1"
     showgrid="false"
     fit-margin-top="0"
     fit-margin-left="0"
     fit-margin-right="0"
     fit-margin-bottom="0"
     inkscape:window-width="2560"
     inkscape:window-height="1373"
     inkscape:window-x="3891"
     inkscape:window-y="897"
     inkscape:window-maximized="1" />
  <metadata
     id="metadata1049">
    <rdf:RDF>
      <cc:Work
         rdf:about="">
        <dc:format>image/svg+xml</dc:format>
        <dc:type
           rdf:resource="http://purl.org/dc/dcmitype/StillImage" />
        <dc:title></dc:title>
      </cc:Work>
    </rdf:RDF>
  </metadata>
  <g
     inkscape:label="Ebene 1"
     inkscape:groupmode="layer"
     id="layer1"
     transform="translate(-78.559793,-111.497)">
    <g
       transform="matrix(0.35277777,0,0,-0.35277777,73.103678,192.74878)"
       id="g955">
      <text
         id="text52"
         style="font-variant:normal;font-weight:normal;font-stretch:normal;font-size:28.74740028px;font-family:'Times New Roman';-inkscape-font-specification:TimesNewRomanPSMT;writing-mode:lr-tb;fill:#4b4b4d;fill-opacity:1;fill-rule:nonzero;stroke:none"
         transform="matrix(1,0,0,-0.97400113,14.9889,57.6037)">
        <tspan
           id="tspan50"
           y="0"
           x="0"
           style="fill:#ffffff">M</tspan>
      </text>
      <text
         id="text56"
         style="font-variant:normal;font-weight:normal;font-stretch:normal;font-size:28.74740028px;font-family:'Times New Roman';-inkscape-font-specification:TimesNewRomanPSMT;writing-mode:lr-tb;fill:#4b4b4d;fill-opacity:1;fill-rule:nonzero;stroke:none"
         transform="matrix(1,0,0,-0.97400113,40.5212,57.6037)">
        <tspan
           id="tspan54"
           y="0"
           x="0"
           style="fill:#ffffff">a</tspan>
      </text>
      <text
         id="text60"
         style="font-variant:normal;font-weight:normal;font-stretch:normal;font-size:28.74740028px;font-family:'Times New Roman';-inkscape-font-specification:TimesNewRomanPSMT;writing-mode:lr-tb;fill:#4b4b4d;fill-opacity:1;fill-rule:nonzero;stroke:none"
         transform="matrix(1,0,0,-0.97400113,53.2804,57.6037)">
        <tspan
           id="tspan58"
           sodipodi:role="line"
           y="0"
           x="0 14.3737 23.946585 43.121101 57.494801 67.067688 81.441383 91.014267 100.58715 114.96085 126.14359 134.13538 142.12715 150.11893 164.49263"
           style="fill:#ffffff">x-Born-Institut</tspan>
      </text>
      <path
         inkscape:connector-curvature="0"
         id="path62"
         style="fill:#1f2359;fill-opacity:1;fill-rule:nonzero;stroke:none"
         d="M 120.034,86.079 H 17.35 l 102.684,141.61 z" />
      <path
         inkscape:connector-curvature="0"
         id="path64"
         style="fill:#1f2359;fill-opacity:1;fill-rule:nonzero;stroke:none"
         d="M 118.754,86.078 H 223.452 L 118.754,228.359 Z" />
      <g
         id="g66">
        <g
           id="g68">
          <g
             id="g74">
            <g
               id="g76">
              <path
                 inkscape:connector-curvature="0"
                 id="path88"
                 style="fill:url(#radialGradient86);stroke:none"
                 d="m 171.903,137.637 c 0,-27.942 -23.211,-50.59 -51.843,-50.59 -28.633,0 -51.846,22.648 -51.846,50.59 0,27.943 23.213,50.593 51.846,50.593 28.632,0 51.843,-22.65 51.843,-50.593" />
            </g>
          </g>
        </g>
      </g>
      <path
         inkscape:connector-curvature="0"
         id="path90"
         style="fill:none;stroke:#ffffff;stroke-width:2;stroke-linecap:butt;stroke-linejoin:round;stroke-miterlimit:10;stroke-dasharray:none;stroke-opacity:1"
         d="m 18.094,87.451 38.078,19.653 1.988,5.709 3.924,-8.446 3.948,15.006 2.834,-15.006 7.871,20.716 2.861,-6.56 16.613,8.448" />
      <path
         inkscape:connector-curvature="0"
         id="path92"
         style="fill:none;stroke:#ffffff;stroke-width:3;stroke-linecap:square;stroke-linejoin:miter;stroke-miterlimit:10;stroke-dasharray:none;stroke-opacity:1"
         d="m 119.557,151.152 v 30.01 l 18.199,3.586 -35.318,4.815 17.119,6.512 v 32.745" />
      <path
         inkscape:connector-curvature="0"
         id="path94"
         style="fill:none;stroke:#ffffff;stroke-width:2;stroke-linecap:butt;stroke-linejoin:round;stroke-miterlimit:10;stroke-dasharray:none;stroke-opacity:1"
         d="m 222.782,87.451 -38.031,19.627 -1.984,5.714 -3.927,-8.449 -3.974,15.009 -2.806,-15.009 -7.899,20.716 -2.857,-6.56 -16.616,8.446" />
      <path
         inkscape:connector-curvature="0"
         id="path96"
         style="fill:#1e2354;fill-opacity:1;fill-rule:evenodd;stroke:none"
         d="m 90.664,150.782 h 8.243 l 3.223,-16.536 3.226,16.536 h 8.244 v -27.094 h -5.196 v 20.583 l -3.943,-20.583 h -4.658 l -3.943,20.583 v -20.583 h -5.196 z" />
      <path
         inkscape:connector-curvature="0"
         id="path98"
         style="fill:#1e2354;fill-opacity:1;fill-rule:evenodd;stroke:none"
         d="m 123.998,129.496 h 3.225 0.541 l 0.357,0.176 h 0.179 0.36 l 0.359,0.174 0.177,0.175 0.179,0.176 0.18,0.176 0.179,0.174 0.18,0.18 v 0.177 l 0.174,0.347 v 0.179 l 0.185,0.349 v 0.356 0.174 0.35 0.355 l -0.185,0.174 v 0.175 l -0.174,0.354 v 0.176 l -0.18,0.173 -0.179,0.176 -0.18,0.178 -0.179,0.176 -0.177,0.179 h -0.359 l -0.36,0.175 h -0.179 -0.357 -0.541 -3.225 z m 0,10.553 h 2.869 l 0.356,0.176 h 0.361 0.18 0.357 l 0.179,0.178 0.18,0.177 h 0.18 l 0.178,0.176 0.181,0.175 0.177,0.174 v 0.352 l 0.179,0.178 v 0.176 0.349 0.354 0.175 0.353 0.177 0.349 0.177 l -0.179,0.353 v 0.173 l -0.177,0.178 -0.181,0.176 -0.178,0.176 h -0.18 l -0.18,0.176 -0.179,0.175 h -0.357 -0.18 -0.361 l -0.356,0.178 h -2.869 z m -6.273,10.733 h 11.83 l 0.718,-0.175 h 0.718 l 0.536,-0.177 0.534,-0.176 0.538,-0.35 0.542,-0.353 0.535,-0.35 0.357,-0.355 0.359,-0.526 0.359,-0.529 0.357,-0.526 0.18,-0.704 0.179,-0.529 v -0.702 l 0.181,-0.705 v -0.703 -0.527 -0.53 l -0.181,-0.529 -0.179,-0.525 v -0.528 l -0.359,-0.527 -0.178,-0.353 -0.18,-0.528 -0.179,-0.175 -0.359,-0.354 -0.179,-0.176 -0.178,-0.354 -0.356,-0.171 -0.362,-0.177 -0.359,-0.176 -0.359,-0.179 0.539,-0.175 0.541,-0.176 0.534,-0.35 0.359,-0.178 0.358,-0.35 0.358,-0.355 0.359,-0.349 0.179,-0.53 0.359,-0.349 0.179,-0.526 0.18,-0.533 0.179,-0.525 v -0.529 l 0.179,-0.529 v -0.524 -0.705 -0.526 -0.531 -0.527 l -0.179,-0.35 v -0.529 l -0.179,-0.35 -0.18,-0.531 -0.179,-0.352 -0.178,-0.529 -0.181,-0.35 -0.179,-0.349 -0.359,-0.354 -0.178,-0.354 -0.359,-0.176 -0.179,-0.351 -0.359,-0.173 -0.178,-0.176 -0.356,-0.178 -0.179,-0.176 h -0.362 l -0.18,-0.175 -0.359,-0.174 h -0.354 -0.538 l -0.357,-0.18 h -0.539 l -0.364,-0.176 h -0.354 -0.359 -0.356 -0.181 l -0.178,-0.175 h -10.935 z" />
      <path
         inkscape:connector-curvature="0"
         id="path100"
         style="fill:#1e2354;fill-opacity:1;fill-rule:evenodd;stroke:none"
         d="m 144.794,150.607 v 0.175 h -6.272 v -27.094 h 6.272 v 0.179 z" />
      <g
         id="g102">
        <g
           id="g104" />
        <g
           id="g114">
          <g
             style="opacity:0.19999701"
             id="g112"
             clip-path="url(#clipPath108)">
            <path
               inkscape:connector-curvature="0"
               id="path110"
               style="fill:#ffffff;fill-opacity:1;fill-rule:evenodd;stroke:none"
               d="m 127.621,136.732 c 0,-4.539 -3.68,-8.218 -8.22,-8.218 -4.539,0 -8.218,3.679 -8.218,8.218 0,4.54 3.679,8.22 8.218,8.22 4.54,0 8.22,-3.68 8.22,-8.22" />
          </g>
        </g>
      </g>
      <g
         id="g116">
        <g
           id="g118" />
        <g
           id="g128">
          <g
             style="opacity:0.19999701"
             id="g126"
             clip-path="url(#clipPath122)">
            <path
               inkscape:connector-curvature="0"
               id="path124"
               style="fill:#ffffff;fill-opacity:1;fill-rule:evenodd;stroke:none"
               d="m 125.978,136.732 c 0,-3.63 -2.945,-6.575 -6.577,-6.575 -3.63,0 -6.575,2.945 -6.575,6.575 0,3.632 2.945,6.577 6.575,6.577 3.632,0 6.577,-2.945 6.577,-6.577" />
          </g>
        </g>
      </g>
      <g
         id="g130">
        <g
           id="g132" />
        <g
           id="g142">
          <g
             style="opacity:0.19999701"
             id="g140"
             clip-path="url(#clipPath136)">
            <path
               inkscape:connector-curvature="0"
               id="path138"
               style="fill:#ffffff;fill-opacity:1;fill-rule:evenodd;stroke:none"
               d="m 124.662,136.732 c 0,-2.904 -2.355,-5.259 -5.261,-5.259 -2.904,0 -5.259,2.355 -5.259,5.259 0,2.906 2.355,5.261 5.259,5.261 2.906,0 5.261,-2.355 5.261,-5.261" />
          </g>
        </g>
      </g>
      <g
         id="g144">
        <g
           id="g146" />
        <g
           id="g156">
          <g
             style="opacity:0.19999701"
             id="g154"
             clip-path="url(#clipPath150)">
            <path
               inkscape:connector-curvature="0"
               id="path152"
               style="fill:#ffffff;fill-opacity:1;fill-rule:evenodd;stroke:none"
               d="m 123.61,136.732 c 0,-2.323 -1.884,-4.208 -4.209,-4.208 -2.323,0 -4.208,1.885 -4.208,4.208 0,2.325 1.885,4.209 4.208,4.209 2.325,0 4.209,-1.884 4.209,-4.209" />
          </g>
        </g>
      </g>
      <g
         id="g158">
        <g
           id="g160" />
        <g
           id="g170">
          <g
             style="opacity:0.19999701"
             id="g168"
             clip-path="url(#clipPath164)">
            <path
               inkscape:connector-curvature="0"
               id="path166"
               style="fill:#ffffff;fill-opacity:1;fill-rule:evenodd;stroke:none"
               d="m 122.769,136.732 c 0,-1.858 -1.508,-3.366 -3.368,-3.366 -1.858,0 -3.366,1.508 -3.366,3.366 0,1.86 1.508,3.368 3.366,3.368 1.86,0 3.368,-1.508 3.368,-3.368" />
          </g>
        </g>
      </g>
      <g
         id="g172">
        <g
           id="g174" />
        <g
           id="g184">
          <g
             style="opacity:0.19999701"
             id="g182"
             clip-path="url(#clipPath178)">
            <path
               inkscape:connector-curvature="0"
               id="path180"
               style="fill:#ffffff;fill-opacity:1;fill-rule:evenodd;stroke:none"
               d="m 122.096,136.731 c 0,-1.486 -1.206,-2.692 -2.694,-2.692 -1.486,0 -2.693,1.206 -2.693,2.692 0,1.488 1.207,2.695 2.693,2.695 1.488,0 2.694,-1.207 2.694,-2.695" />
          </g>
        </g>
      </g>
      <g
         id="g186">
        <g
           id="g188" />
        <g
           id="g198">
          <g
             style="opacity:0.19999701"
             id="g196"
             clip-path="url(#clipPath192)">
            <path
               inkscape:connector-curvature="0"
               id="path194"
               style="fill:#ffffff;fill-opacity:1;fill-rule:evenodd;stroke:none"
               d="m 121.557,136.731 c 0,-1.188 -0.965,-2.153 -2.155,-2.153 -1.189,0 -2.154,0.965 -2.154,2.153 0,1.191 0.965,2.156 2.154,2.156 1.19,0 2.155,-0.965 2.155,-2.156" />
          </g>
        </g>
      </g>
      <g
         id="g200">
        <g
           id="g202" />
        <g
           id="g212">
          <g
             style="opacity:0.19999701"
             id="g210"
             clip-path="url(#clipPath206)">
            <path
               inkscape:connector-curvature="0"
               id="path208"
               style="fill:#ffffff;fill-opacity:1;fill-rule:evenodd;stroke:none"
               d="m 121.126,136.731 c 0,-0.95 -0.772,-1.722 -1.724,-1.722 -0.951,0 -1.723,0.772 -1.723,1.722 0,0.953 0.772,1.725 1.723,1.725 0.952,0 1.724,-0.772 1.724,-1.725" />
          </g>
        </g>
      </g>
    </g>
  </g>
</svg>
